<?xml version="1.0" encoding="UTF-8"?>
<!DOCTYPE svg PUBLIC "-//W3C//DTD SVG 1.1//EN" "http://www.w3.org/Graphics/SVG/1.1/DTD/svg11.dtd">
<svg xmlns="http://www.w3.org/2000/svg" version="1.1" width="1344px" height="1600px" style="shape-rendering:geometricPrecision; text-rendering:geometricPrecision; image-rendering:optimizeQuality; fill-rule:evenodd; clip-rule:evenodd" xmlns:xlink="http://www.w3.org/1999/xlink">
<g><path style="opacity:1" fill="#0e0011" d="M 1031.5,309.5 C 1031.5,333.167 1031.5,356.833 1031.5,380.5C 1023.5,380.5 1015.5,380.5 1007.5,380.5C 1007.5,452.167 1007.5,523.833 1007.5,595.5C 1007.5,603.5 1007.5,611.5 1007.5,619.5C 1007.5,627.5 1007.5,635.5 1007.5,643.5C 1007.5,659.5 1007.5,675.5 1007.5,691.5C 1007.5,699.5 1007.5,707.5 1007.5,715.5C 999.5,715.5 991.5,715.5 983.5,715.5C 983.5,659.5 983.5,603.5 983.5,547.5C 967.5,547.5 951.5,547.5 935.5,547.5C 935.5,555.5 935.5,563.5 935.5,571.5C 919.5,571.5 903.5,571.5 887.5,571.5C 887.5,579.5 887.5,587.5 887.5,595.5C 871.5,595.5 855.5,595.5 839.5,595.5C 839.5,603.5 839.5,611.5 839.5,619.5C 807.5,619.5 775.5,619.5 743.5,619.5C 743.5,627.5 743.5,635.5 743.5,643.5C 735.5,643.5 727.5,643.5 719.5,643.5C 719.5,651.5 719.5,659.5 719.5,667.5C 695.5,667.5 671.5,667.5 647.5,667.5C 647.5,659.5 647.5,651.5 647.5,643.5C 655.5,643.5 663.5,643.5 671.5,643.5C 671.5,627.5 671.5,611.5 671.5,595.5C 663.5,595.5 655.5,595.5 647.5,595.5C 647.5,603.5 647.5,611.5 647.5,619.5C 639.5,619.5 631.5,619.5 623.5,619.5C 623.5,627.5 623.5,635.5 623.5,643.5C 599.5,643.5 575.5,643.5 551.5,643.5C 551.5,651.5 551.5,659.5 551.5,667.5C 519.5,667.5 487.5,667.5 455.5,667.5C 455.5,675.5 455.5,683.5 455.5,691.5C 431.5,691.5 407.5,691.5 383.5,691.5C 383.5,699.5 383.5,707.5 383.5,715.5C 375.5,715.5 367.5,715.5 359.5,715.5C 359.5,707.5 359.5,699.5 359.5,691.5C 359.5,675.5 359.5,659.5 359.5,643.5C 359.5,635.5 359.5,627.5 359.5,619.5C 359.5,611.5 359.5,603.5 359.5,595.5C 359.5,523.833 359.5,452.167 359.5,380.5C 351.5,380.5 343.5,380.5 335.5,380.5C 335.5,364.5 335.5,348.5 335.5,332.5C 343.5,332.5 351.5,332.5 359.5,332.5C 359.5,324.833 359.5,317.167 359.5,309.5C 367.5,309.5 375.5,309.5 383.5,309.5C 383.5,301.5 383.5,293.5 383.5,285.5C 391.5,285.5 399.5,285.5 407.5,285.5C 407.5,277.5 407.5,269.5 407.5,261.5C 415.5,261.5 423.5,261.5 431.5,261.5C 431.5,253.5 431.5,245.5 431.5,237.5C 439.5,237.5 447.5,237.5 455.5,237.5C 455.5,229.5 455.5,221.5 455.5,213.5C 463.5,213.5 471.5,213.5 479.5,213.5C 479.5,205.5 479.5,197.5 479.5,189.5C 495.5,189.5 511.5,189.5 527.5,189.5C 527.5,181.5 527.5,173.5 527.5,165.5C 551.5,165.5 575.5,165.5 599.5,165.5C 599.5,157.5 599.5,149.5 599.5,141.5C 655.5,141.5 711.5,141.5 767.5,141.5C 767.5,149.5 767.5,157.5 767.5,165.5C 799.5,165.5 831.5,165.5 863.5,165.5C 863.5,173.5 863.5,181.5 863.5,189.5C 879.5,189.5 895.5,189.5 911.5,189.5C 911.5,197.5 911.5,205.5 911.5,213.5C 927.5,213.5 943.5,213.5 959.5,213.5C 959.5,221.5 959.5,229.5 959.5,237.5C 967.5,237.5 975.5,237.5 983.5,237.5C 983.5,245.5 983.5,253.5 983.5,261.5C 991.5,261.5 999.5,261.5 1007.5,261.5C 1007.5,269.5 1007.5,277.5 1007.5,285.5C 1015.5,285.5 1023.5,285.5 1031.5,285.5C 1031.5,293.5 1031.5,301.5 1031.5,309.5 Z"/></g>
<g><path style="opacity:1" fill="#74757e" d="M 335.5,332.5 C 335.5,348.5 335.5,364.5 335.5,380.5C 343.5,380.5 351.5,380.5 359.5,380.5C 359.5,452.167 359.5,523.833 359.5,595.5C 351.5,595.5 343.5,595.5 335.5,595.5C 335.5,603.5 335.5,611.5 335.5,619.5C 327.5,619.5 319.5,619.5 311.5,619.5C 311.5,611.5 311.5,603.5 311.5,595.5C 303.5,595.5 295.5,595.5 287.5,595.5C 287.5,539.833 287.5,484.167 287.5,428.5C 287.5,404.5 287.5,380.5 287.5,356.5C 295.5,356.5 303.5,356.5 311.5,356.5C 311.5,340.833 311.5,325.167 311.5,309.5C 319.5,309.5 327.5,309.5 335.5,309.5C 335.5,317.167 335.5,324.833 335.5,332.5 Z"/></g>
<g><path style="opacity:1" fill="#74757e" d="M 1031.5,309.5 C 1039.5,309.5 1047.5,309.5 1055.5,309.5C 1055.5,317.167 1055.5,324.833 1055.5,332.5C 1055.5,340.5 1055.5,348.5 1055.5,356.5C 1063.5,356.5 1071.5,356.5 1079.5,356.5C 1079.5,380.5 1079.5,404.5 1079.5,428.5C 1079.5,484.167 1079.5,539.833 1079.5,595.5C 1071.5,595.5 1063.5,595.5 1055.5,595.5C 1055.5,603.5 1055.5,611.5 1055.5,619.5C 1047.5,619.5 1039.5,619.5 1031.5,619.5C 1031.5,611.5 1031.5,603.5 1031.5,595.5C 1023.5,595.5 1015.5,595.5 1007.5,595.5C 1007.5,523.833 1007.5,452.167 1007.5,380.5C 1015.5,380.5 1023.5,380.5 1031.5,380.5C 1031.5,356.833 1031.5,333.167 1031.5,309.5 Z"/></g>
<g><path style="opacity:1" fill="#0e0011" d="M 1055.5,332.5 C 1063.5,332.5 1071.5,332.5 1079.5,332.5C 1079.5,340.5 1079.5,348.5 1079.5,356.5C 1079.5,348.5 1079.5,340.5 1079.5,332.5C 1071.5,332.5 1063.5,332.5 1055.5,332.5 Z"/></g>
<g><path style="opacity:1" fill="#0e0011" d="M 287.5,428.5 C 287.5,484.167 287.5,539.833 287.5,595.5C 287.5,603.5 287.5,611.5 287.5,619.5C 287.5,627.5 287.5,635.5 287.5,643.5C 287.5,659.5 287.5,675.5 287.5,691.5C 287.5,699.5 287.5,707.5 287.5,715.5C 279.5,715.5 271.5,715.5 263.5,715.5C 263.5,747.167 263.5,778.833 263.5,810.5C 271.5,810.5 279.5,810.5 287.5,810.5C 287.5,818.5 287.5,826.5 287.5,834.5C 287.5,842.5 287.5,850.5 287.5,858.5C 287.5,874.5 287.5,890.5 287.5,906.5C 295.5,906.5 303.5,906.5 311.5,906.5C 311.5,914.5 311.5,922.5 311.5,930.5C 319.5,930.5 327.5,930.5 335.5,930.5C 335.5,938.5 335.5,946.5 335.5,954.5C 343.5,954.5 351.5,954.5 359.5,954.5C 359.5,970.167 359.5,985.833 359.5,1001.5C 359.5,1009.5 359.5,1017.5 359.5,1025.5C 359.5,1033.5 359.5,1041.5 359.5,1049.5C 367.5,1049.5 375.5,1049.5 383.5,1049.5C 383.5,1057.5 383.5,1065.5 383.5,1073.5C 391.5,1073.5 399.5,1073.5 407.5,1073.5C 407.5,1081.5 407.5,1089.5 407.5,1097.5C 415.5,1097.5 423.5,1097.5 431.5,1097.5C 431.5,1105.5 431.5,1113.5 431.5,1121.5C 431.5,1129.5 431.5,1137.5 431.5,1145.5C 439.5,1145.5 447.5,1145.5 455.5,1145.5C 455.5,1153.5 455.5,1161.5 455.5,1169.5C 463.5,1169.5 471.5,1169.5 479.5,1169.5C 479.5,1177.17 479.5,1184.83 479.5,1192.5C 487.5,1192.5 495.5,1192.5 503.5,1192.5C 503.5,1200.5 503.5,1208.5 503.5,1216.5C 511.5,1216.5 519.5,1216.5 527.5,1216.5C 527.5,1224.5 527.5,1232.5 527.5,1240.5C 511.5,1240.5 495.5,1240.5 479.5,1240.5C 479.5,1248.5 479.5,1256.5 479.5,1264.5C 471.5,1264.5 463.5,1264.5 455.5,1264.5C 455.5,1272.5 455.5,1280.5 455.5,1288.5C 447.5,1288.5 439.5,1288.5 431.5,1288.5C 431.5,1280.5 431.5,1272.5 431.5,1264.5C 423.5,1264.5 415.5,1264.5 407.5,1264.5C 407.5,1256.5 407.5,1248.5 407.5,1240.5C 399.5,1240.5 391.5,1240.5 383.5,1240.5C 383.5,1232.5 383.5,1224.5 383.5,1216.5C 375.5,1216.5 367.5,1216.5 359.5,1216.5C 359.5,1200.83 359.5,1185.17 359.5,1169.5C 351.5,1169.5 343.5,1169.5 335.5,1169.5C 335.5,1161.5 335.5,1153.5 335.5,1145.5C 327.5,1145.5 319.5,1145.5 311.5,1145.5C 311.5,1121.5 311.5,1097.5 311.5,1073.5C 303.5,1073.5 295.5,1073.5 287.5,1073.5C 287.5,1065.5 287.5,1057.5 287.5,1049.5C 255.5,1049.5 223.5,1049.5 191.5,1049.5C 191.5,1041.5 191.5,1033.5 191.5,1025.5C 183.5,1025.5 175.5,1025.5 167.5,1025.5C 167.5,1017.5 167.5,1009.5 167.5,1001.5C 175.5,1001.5 183.5,1001.5 191.5,1001.5C 191.5,993.5 191.5,985.5 191.5,977.5C 183.5,977.5 175.5,977.5 167.5,977.5C 167.5,969.833 167.5,962.167 167.5,954.5C 159.5,954.5 151.5,954.5 143.5,954.5C 143.5,946.5 143.5,938.5 143.5,930.5C 151.5,930.5 159.5,930.5 167.5,930.5C 167.5,922.5 167.5,914.5 167.5,906.5C 175.5,906.5 183.5,906.5 191.5,906.5C 191.5,898.5 191.5,890.5 191.5,882.5C 199.5,882.5 207.5,882.5 215.5,882.5C 215.5,842.5 215.5,802.5 215.5,762.5C 207.5,762.5 199.5,762.5 191.5,762.5C 191.5,754.833 191.5,747.167 191.5,739.5C 183.5,739.5 175.5,739.5 167.5,739.5C 167.5,731.5 167.5,723.5 167.5,715.5C 175.5,715.5 183.5,715.5 191.5,715.5C 191.5,707.5 191.5,699.5 191.5,691.5C 199.5,691.5 207.5,691.5 215.5,691.5C 215.5,683.5 215.5,675.5 215.5,667.5C 223.5,667.5 231.5,667.5 239.5,667.5C 239.5,611.833 239.5,556.167 239.5,500.5C 247.5,500.5 255.5,500.5 263.5,500.5C 263.5,476.5 263.5,452.5 263.5,428.5C 271.5,428.5 279.5,428.5 287.5,428.5 Z"/></g>
<g><path style="opacity:1" fill="#0e0011" d="M 1079.5,428.5 C 1087.5,428.5 1095.5,428.5 1103.5,428.5C 1103.5,460.5 1103.5,492.5 1103.5,524.5C 1111.5,524.5 1119.5,524.5 1127.5,524.5C 1127.5,580.167 1127.5,635.833 1127.5,691.5C 1135.5,691.5 1143.5,691.5 1151.5,691.5C 1151.5,715.167 1151.5,738.833 1151.5,762.5C 1159.5,762.5 1167.5,762.5 1175.5,762.5C 1175.5,786.5 1175.5,810.5 1175.5,834.5C 1183.5,834.5 1191.5,834.5 1199.5,834.5C 1199.5,858.5 1199.5,882.5 1199.5,906.5C 1191.5,906.5 1183.5,906.5 1175.5,906.5C 1175.5,914.5 1175.5,922.5 1175.5,930.5C 1167.5,930.5 1159.5,930.5 1151.5,930.5C 1151.5,922.5 1151.5,914.5 1151.5,906.5C 1143.5,906.5 1135.5,906.5 1127.5,906.5C 1127.5,938.167 1127.5,969.833 1127.5,1001.5C 1119.5,1001.5 1111.5,1001.5 1103.5,1001.5C 1103.5,1025.5 1103.5,1049.5 1103.5,1073.5C 1095.5,1073.5 1087.5,1073.5 1079.5,1073.5C 1079.5,1097.5 1079.5,1121.5 1079.5,1145.5C 1071.5,1145.5 1063.5,1145.5 1055.5,1145.5C 1055.5,1161.17 1055.5,1176.83 1055.5,1192.5C 1047.5,1192.5 1039.5,1192.5 1031.5,1192.5C 1031.5,1200.5 1031.5,1208.5 1031.5,1216.5C 1023.5,1216.5 1015.5,1216.5 1007.5,1216.5C 1007.5,1208.5 1007.5,1200.5 1007.5,1192.5C 999.5,1192.5 991.5,1192.5 983.5,1192.5C 983.5,1200.5 983.5,1208.5 983.5,1216.5C 975.5,1216.5 967.5,1216.5 959.5,1216.5C 959.5,1224.5 959.5,1232.5 959.5,1240.5C 951.5,1240.5 943.5,1240.5 935.5,1240.5C 935.5,1232.5 935.5,1224.5 935.5,1216.5C 927.5,1216.5 919.5,1216.5 911.5,1216.5C 911.5,1208.5 911.5,1200.5 911.5,1192.5C 903.5,1192.5 895.5,1192.5 887.5,1192.5C 887.5,1184.83 887.5,1177.17 887.5,1169.5C 895.5,1169.5 903.5,1169.5 911.5,1169.5C 911.5,1161.5 911.5,1153.5 911.5,1145.5C 919.5,1145.5 927.5,1145.5 935.5,1145.5C 935.5,1033.83 935.5,922.167 935.5,810.5C 943.5,810.5 951.5,810.5 959.5,810.5C 959.5,826.5 959.5,842.5 959.5,858.5C 959.5,866.5 959.5,874.5 959.5,882.5C 959.5,890.5 959.5,898.5 959.5,906.5C 959.5,922.5 959.5,938.5 959.5,954.5C 983.5,954.5 1007.5,954.5 1031.5,954.5C 1031.5,946.5 1031.5,938.5 1031.5,930.5C 1039.5,930.5 1047.5,930.5 1055.5,930.5C 1055.5,922.5 1055.5,914.5 1055.5,906.5C 1063.5,906.5 1071.5,906.5 1079.5,906.5C 1079.5,890.5 1079.5,874.5 1079.5,858.5C 1079.5,850.5 1079.5,842.5 1079.5,834.5C 1079.5,826.5 1079.5,818.5 1079.5,810.5C 1087.5,810.5 1095.5,810.5 1103.5,810.5C 1103.5,778.833 1103.5,747.167 1103.5,715.5C 1095.5,715.5 1087.5,715.5 1079.5,715.5C 1079.5,707.5 1079.5,699.5 1079.5,691.5C 1079.5,675.5 1079.5,659.5 1079.5,643.5C 1079.5,635.5 1079.5,627.5 1079.5,619.5C 1079.5,611.5 1079.5,603.5 1079.5,595.5C 1079.5,539.833 1079.5,484.167 1079.5,428.5 Z"/></g>
<g><path style="opacity:1" fill="#f4fafe" d="M 695.5,571.5 C 695.5,563.5 695.5,555.5 695.5,547.5C 703.5,547.5 711.5,547.5 719.5,547.5C 719.5,555.5 719.5,563.5 719.5,571.5C 711.5,571.5 703.5,571.5 695.5,571.5 Z"/></g>
<g><path style="opacity:1" fill="#f4fafe" d="M 983.5,715.5 C 975.5,715.5 967.5,715.5 959.5,715.5C 959.5,747.167 959.5,778.833 959.5,810.5C 951.5,810.5 943.5,810.5 935.5,810.5C 935.5,922.167 935.5,1033.83 935.5,1145.5C 927.5,1145.5 919.5,1145.5 911.5,1145.5C 911.5,1153.5 911.5,1161.5 911.5,1169.5C 903.5,1169.5 895.5,1169.5 887.5,1169.5C 887.5,1177.17 887.5,1184.83 887.5,1192.5C 879.5,1192.5 871.5,1192.5 863.5,1192.5C 863.5,1200.5 863.5,1208.5 863.5,1216.5C 855.5,1216.5 847.5,1216.5 839.5,1216.5C 839.5,1224.5 839.5,1232.5 839.5,1240.5C 831.5,1240.5 823.5,1240.5 815.5,1240.5C 815.5,1248.5 815.5,1256.5 815.5,1264.5C 807.5,1264.5 799.5,1264.5 791.5,1264.5C 791.5,1272.5 791.5,1280.5 791.5,1288.5C 783.5,1288.5 775.5,1288.5 767.5,1288.5C 767.5,1296.5 767.5,1304.5 767.5,1312.5C 751.5,1312.5 735.5,1312.5 719.5,1312.5C 719.5,1320.5 719.5,1328.5 719.5,1336.5C 695.5,1336.5 671.5,1336.5 647.5,1336.5C 647.5,1328.5 647.5,1320.5 647.5,1312.5C 631.5,1312.5 615.5,1312.5 599.5,1312.5C 599.5,1304.5 599.5,1296.5 599.5,1288.5C 591.5,1288.5 583.5,1288.5 575.5,1288.5C 575.5,1280.5 575.5,1272.5 575.5,1264.5C 567.5,1264.5 559.5,1264.5 551.5,1264.5C 551.5,1256.5 551.5,1248.5 551.5,1240.5C 543.5,1240.5 535.5,1240.5 527.5,1240.5C 527.5,1232.5 527.5,1224.5 527.5,1216.5C 519.5,1216.5 511.5,1216.5 503.5,1216.5C 503.5,1208.5 503.5,1200.5 503.5,1192.5C 495.5,1192.5 487.5,1192.5 479.5,1192.5C 479.5,1184.83 479.5,1177.17 479.5,1169.5C 487.5,1169.5 495.5,1169.5 503.5,1169.5C 511.5,1169.5 519.5,1169.5 527.5,1169.5C 535.5,1169.5 543.5,1169.5 551.5,1169.5C 551.5,1177.17 551.5,1184.83 551.5,1192.5C 559.5,1192.5 567.5,1192.5 575.5,1192.5C 591.5,1192.5 607.5,1192.5 623.5,1192.5C 623.5,1184.83 623.5,1177.17 623.5,1169.5C 631.5,1169.5 639.5,1169.5 647.5,1169.5C 647.5,1153.5 647.5,1137.5 647.5,1121.5C 639.5,1121.5 631.5,1121.5 623.5,1121.5C 623.5,1113.5 623.5,1105.5 623.5,1097.5C 615.5,1097.5 607.5,1097.5 599.5,1097.5C 583.5,1097.5 567.5,1097.5 551.5,1097.5C 551.5,1105.5 551.5,1113.5 551.5,1121.5C 535.5,1121.5 519.5,1121.5 503.5,1121.5C 503.5,1113.5 503.5,1105.5 503.5,1097.5C 495.5,1097.5 487.5,1097.5 479.5,1097.5C 479.5,1089.5 479.5,1081.5 479.5,1073.5C 471.5,1073.5 463.5,1073.5 455.5,1073.5C 455.5,1065.5 455.5,1057.5 455.5,1049.5C 447.5,1049.5 439.5,1049.5 431.5,1049.5C 431.5,1041.5 431.5,1033.5 431.5,1025.5C 431.5,953.833 431.5,882.167 431.5,810.5C 423.5,810.5 415.5,810.5 407.5,810.5C 407.5,778.833 407.5,747.167 407.5,715.5C 399.5,715.5 391.5,715.5 383.5,715.5C 383.5,707.5 383.5,699.5 383.5,691.5C 407.5,691.5 431.5,691.5 455.5,691.5C 455.5,683.5 455.5,675.5 455.5,667.5C 487.5,667.5 519.5,667.5 551.5,667.5C 551.5,659.5 551.5,651.5 551.5,643.5C 575.5,643.5 599.5,643.5 623.5,643.5C 623.5,635.5 623.5,627.5 623.5,619.5C 631.5,619.5 639.5,619.5 647.5,619.5C 647.5,611.5 647.5,603.5 647.5,595.5C 655.5,595.5 663.5,595.5 671.5,595.5C 671.5,611.5 671.5,627.5 671.5,643.5C 663.5,643.5 655.5,643.5 647.5,643.5C 647.5,651.5 647.5,659.5 647.5,667.5C 671.5,667.5 695.5,667.5 719.5,667.5C 719.5,659.5 719.5,651.5 719.5,643.5C 727.5,643.5 735.5,643.5 743.5,643.5C 743.5,635.5 743.5,627.5 743.5,619.5C 775.5,619.5 807.5,619.5 839.5,619.5C 839.5,611.5 839.5,603.5 839.5,595.5C 855.5,595.5 871.5,595.5 887.5,595.5C 887.5,587.5 887.5,579.5 887.5,571.5C 903.5,571.5 919.5,571.5 935.5,571.5C 935.5,563.5 935.5,555.5 935.5,547.5C 951.5,547.5 967.5,547.5 983.5,547.5C 983.5,603.5 983.5,659.5 983.5,715.5 Z"/></g>
<g><path style="opacity:1" fill="#f4fafe" d="M 695.5,571.5 C 695.5,579.5 695.5,587.5 695.5,595.5C 687.5,595.5 679.5,595.5 671.5,595.5C 671.5,587.5 671.5,579.5 671.5,571.5C 679.5,571.5 687.5,571.5 695.5,571.5 Z"/></g>
<g><path style="opacity:1" fill="#4f4e57" d="M 287.5,595.5 C 295.5,595.5 303.5,595.5 311.5,595.5C 311.5,603.5 311.5,611.5 311.5,619.5C 303.5,619.5 295.5,619.5 287.5,619.5C 287.5,611.5 287.5,603.5 287.5,595.5 Z"/></g>
<g><path style="opacity:1" fill="#4f4e57" d="M 359.5,595.5 C 359.5,603.5 359.5,611.5 359.5,619.5C 351.5,619.5 343.5,619.5 335.5,619.5C 335.5,611.5 335.5,603.5 335.5,595.5C 343.5,595.5 351.5,595.5 359.5,595.5 Z"/></g>
<g><path style="opacity:1" fill="#4f4e57" d="M 1007.5,595.5 C 1015.5,595.5 1023.5,595.5 1031.5,595.5C 1031.5,603.5 1031.5,611.5 1031.5,619.5C 1023.5,619.5 1015.5,619.5 1007.5,619.5C 1007.5,611.5 1007.5,603.5 1007.5,595.5 Z"/></g>
<g><path style="opacity:1" fill="#4f4e57" d="M 1079.5,595.5 C 1079.5,603.5 1079.5,611.5 1079.5,619.5C 1071.5,619.5 1063.5,619.5 1055.5,619.5C 1055.5,611.5 1055.5,603.5 1055.5,595.5C 1063.5,595.5 1071.5,595.5 1079.5,595.5 Z"/></g>
<g><path style="opacity:1" fill="#74757e" d="M 287.5,619.5 C 295.5,619.5 303.5,619.5 311.5,619.5C 311.5,627.5 311.5,635.5 311.5,643.5C 303.5,643.5 295.5,643.5 287.5,643.5C 287.5,635.5 287.5,627.5 287.5,619.5 Z"/></g>
<g><path style="opacity:1" fill="#4f4e57" d="M 311.5,619.5 C 319.5,619.5 327.5,619.5 335.5,619.5C 335.5,627.5 335.5,635.5 335.5,643.5C 327.5,643.5 319.5,643.5 311.5,643.5C 311.5,635.5 311.5,627.5 311.5,619.5 Z"/></g>
<g><path style="opacity:1" fill="#74757e" d="M 335.5,619.5 C 343.5,619.5 351.5,619.5 359.5,619.5C 359.5,627.5 359.5,635.5 359.5,643.5C 351.5,643.5 343.5,643.5 335.5,643.5C 335.5,635.5 335.5,627.5 335.5,619.5 Z"/></g>
<g><path style="opacity:1" fill="#74757e" d="M 1007.5,619.5 C 1015.5,619.5 1023.5,619.5 1031.5,619.5C 1031.5,627.5 1031.5,635.5 1031.5,643.5C 1023.5,643.5 1015.5,643.5 1007.5,643.5C 1007.5,635.5 1007.5,627.5 1007.5,619.5 Z"/></g>
<g><path style="opacity:1" fill="#4f4e57" d="M 1031.5,619.5 C 1039.5,619.5 1047.5,619.5 1055.5,619.5C 1055.5,627.5 1055.5,635.5 1055.5,643.5C 1047.5,643.5 1039.5,643.5 1031.5,643.5C 1031.5,635.5 1031.5,627.5 1031.5,619.5 Z"/></g>
<g><path style="opacity:1" fill="#74757e" d="M 1055.5,619.5 C 1063.5,619.5 1071.5,619.5 1079.5,619.5C 1079.5,627.5 1079.5,635.5 1079.5,643.5C 1071.5,643.5 1063.5,643.5 1055.5,643.5C 1055.5,635.5 1055.5,627.5 1055.5,619.5 Z"/></g>
<g><path style="opacity:1" fill="#4f4e57" d="M 287.5,643.5 C 295.5,643.5 303.5,643.5 311.5,643.5C 311.5,651.5 311.5,659.5 311.5,667.5C 319.5,667.5 327.5,667.5 335.5,667.5C 335.5,659.5 335.5,651.5 335.5,643.5C 343.5,643.5 351.5,643.5 359.5,643.5C 359.5,659.5 359.5,675.5 359.5,691.5C 335.5,691.5 311.5,691.5 287.5,691.5C 287.5,675.5 287.5,659.5 287.5,643.5 Z"/></g>
<g><path style="opacity:1" fill="#74757e" d="M 311.5,643.5 C 319.5,643.5 327.5,643.5 335.5,643.5C 335.5,651.5 335.5,659.5 335.5,667.5C 327.5,667.5 319.5,667.5 311.5,667.5C 311.5,659.5 311.5,651.5 311.5,643.5 Z"/></g>
<g><path style="opacity:1" fill="#4f4e57" d="M 1007.5,643.5 C 1015.5,643.5 1023.5,643.5 1031.5,643.5C 1031.5,651.5 1031.5,659.5 1031.5,667.5C 1039.5,667.5 1047.5,667.5 1055.5,667.5C 1055.5,659.5 1055.5,651.5 1055.5,643.5C 1063.5,643.5 1071.5,643.5 1079.5,643.5C 1079.5,659.5 1079.5,675.5 1079.5,691.5C 1055.5,691.5 1031.5,691.5 1007.5,691.5C 1007.5,675.5 1007.5,659.5 1007.5,643.5 Z"/></g>
<g><path style="opacity:1" fill="#74757e" d="M 1031.5,643.5 C 1039.5,643.5 1047.5,643.5 1055.5,643.5C 1055.5,651.5 1055.5,659.5 1055.5,667.5C 1047.5,667.5 1039.5,667.5 1031.5,667.5C 1031.5,659.5 1031.5,651.5 1031.5,643.5 Z"/></g>
<g><path style="opacity:1" fill="#9ca0a7" d="M 287.5,691.5 C 311.5,691.5 335.5,691.5 359.5,691.5C 359.5,699.5 359.5,707.5 359.5,715.5C 367.5,715.5 375.5,715.5 383.5,715.5C 383.5,747.167 383.5,778.833 383.5,810.5C 391.5,810.5 399.5,810.5 407.5,810.5C 407.5,826.5 407.5,842.5 407.5,858.5C 383.5,858.5 359.5,858.5 335.5,858.5C 335.5,850.5 335.5,842.5 335.5,834.5C 327.5,834.5 319.5,834.5 311.5,834.5C 311.5,826.5 311.5,818.5 311.5,810.5C 303.5,810.5 295.5,810.5 287.5,810.5C 279.5,810.5 271.5,810.5 263.5,810.5C 263.5,778.833 263.5,747.167 263.5,715.5C 271.5,715.5 279.5,715.5 287.5,715.5C 287.5,707.5 287.5,699.5 287.5,691.5 Z"/></g>
<g><path style="opacity:1" fill="#9ca0a7" d="M 1007.5,691.5 C 1031.5,691.5 1055.5,691.5 1079.5,691.5C 1079.5,699.5 1079.5,707.5 1079.5,715.5C 1087.5,715.5 1095.5,715.5 1103.5,715.5C 1103.5,747.167 1103.5,778.833 1103.5,810.5C 1095.5,810.5 1087.5,810.5 1079.5,810.5C 1071.5,810.5 1063.5,810.5 1055.5,810.5C 1055.5,818.5 1055.5,826.5 1055.5,834.5C 1047.5,834.5 1039.5,834.5 1031.5,834.5C 1031.5,842.5 1031.5,850.5 1031.5,858.5C 1007.5,858.5 983.5,858.5 959.5,858.5C 959.5,842.5 959.5,826.5 959.5,810.5C 967.5,810.5 975.5,810.5 983.5,810.5C 983.5,778.833 983.5,747.167 983.5,715.5C 991.5,715.5 999.5,715.5 1007.5,715.5C 1007.5,707.5 1007.5,699.5 1007.5,691.5 Z"/></g>
<g><path style="opacity:1" fill="#c7ccd2" d="M 287.5,715.5 C 303.5,715.5 319.5,715.5 335.5,715.5C 335.5,731.167 335.5,746.833 335.5,762.5C 319.5,762.5 303.5,762.5 287.5,762.5C 287.5,746.833 287.5,731.167 287.5,715.5 Z"/></g>
<g><path style="opacity:1" fill="#0e0011" d="M 383.5,715.5 C 391.5,715.5 399.5,715.5 407.5,715.5C 407.5,747.167 407.5,778.833 407.5,810.5C 399.5,810.5 391.5,810.5 383.5,810.5C 383.5,778.833 383.5,747.167 383.5,715.5 Z"/></g>
<g><path style="opacity:1" fill="#0e0011" d="M 983.5,715.5 C 983.5,747.167 983.5,778.833 983.5,810.5C 975.5,810.5 967.5,810.5 959.5,810.5C 959.5,778.833 959.5,747.167 959.5,715.5C 967.5,715.5 975.5,715.5 983.5,715.5 Z"/></g>
<g><path style="opacity:1" fill="#c7ccd2" d="M 1079.5,715.5 C 1079.5,731.167 1079.5,746.833 1079.5,762.5C 1063.5,762.5 1047.5,762.5 1031.5,762.5C 1031.5,746.833 1031.5,731.167 1031.5,715.5C 1047.5,715.5 1063.5,715.5 1079.5,715.5 Z"/></g>
<g><path style="opacity:1" fill="#c7ccd2" d="M 335.5,762.5 C 343.5,762.5 351.5,762.5 359.5,762.5C 359.5,770.5 359.5,778.5 359.5,786.5C 351.5,786.5 343.5,786.5 335.5,786.5C 335.5,778.5 335.5,770.5 335.5,762.5 Z"/></g>
<g><path style="opacity:1" fill="#c7ccd2" d="M 1031.5,762.5 C 1031.5,770.5 1031.5,778.5 1031.5,786.5C 1023.5,786.5 1015.5,786.5 1007.5,786.5C 1007.5,778.5 1007.5,770.5 1007.5,762.5C 1015.5,762.5 1023.5,762.5 1031.5,762.5 Z"/></g>
<g><path style="opacity:1" fill="#74757e" d="M 287.5,810.5 C 295.5,810.5 303.5,810.5 311.5,810.5C 311.5,818.5 311.5,826.5 311.5,834.5C 303.5,834.5 295.5,834.5 287.5,834.5C 287.5,826.5 287.5,818.5 287.5,810.5 Z"/></g>
<g><path style="opacity:1" fill="#0e0011" d="M 407.5,810.5 C 415.5,810.5 423.5,810.5 431.5,810.5C 431.5,882.167 431.5,953.833 431.5,1025.5C 423.5,1025.5 415.5,1025.5 407.5,1025.5C 407.5,1017.5 407.5,1009.5 407.5,1001.5C 407.5,993.5 407.5,985.5 407.5,977.5C 407.5,969.833 407.5,962.167 407.5,954.5C 407.5,938.5 407.5,922.5 407.5,906.5C 407.5,898.5 407.5,890.5 407.5,882.5C 407.5,874.5 407.5,866.5 407.5,858.5C 407.5,842.5 407.5,826.5 407.5,810.5 Z"/></g>
<g><path style="opacity:1" fill="#74757e" d="M 1079.5,810.5 C 1079.5,818.5 1079.5,826.5 1079.5,834.5C 1071.5,834.5 1063.5,834.5 1055.5,834.5C 1055.5,826.5 1055.5,818.5 1055.5,810.5C 1063.5,810.5 1071.5,810.5 1079.5,810.5 Z"/></g>
<g><path style="opacity:1" fill="#9ca0a7" d="M 287.5,834.5 C 295.5,834.5 303.5,834.5 311.5,834.5C 311.5,842.5 311.5,850.5 311.5,858.5C 303.5,858.5 295.5,858.5 287.5,858.5C 287.5,850.5 287.5,842.5 287.5,834.5 Z"/></g>
<g><path style="opacity:1" fill="#74757e" d="M 311.5,834.5 C 319.5,834.5 327.5,834.5 335.5,834.5C 335.5,842.5 335.5,850.5 335.5,858.5C 327.5,858.5 319.5,858.5 311.5,858.5C 311.5,850.5 311.5,842.5 311.5,834.5 Z"/></g>
<g><path style="opacity:1" fill="#74757e" d="M 1055.5,834.5 C 1055.5,842.5 1055.5,850.5 1055.5,858.5C 1047.5,858.5 1039.5,858.5 1031.5,858.5C 1031.5,850.5 1031.5,842.5 1031.5,834.5C 1039.5,834.5 1047.5,834.5 1055.5,834.5 Z"/></g>
<g><path style="opacity:1" fill="#9ca0a7" d="M 1055.5,834.5 C 1063.5,834.5 1071.5,834.5 1079.5,834.5C 1079.5,842.5 1079.5,850.5 1079.5,858.5C 1071.5,858.5 1063.5,858.5 1055.5,858.5C 1055.5,850.5 1055.5,842.5 1055.5,834.5 Z"/></g>
<g><path style="opacity:1" fill="#74757e" d="M 287.5,858.5 C 295.5,858.5 303.5,858.5 311.5,858.5C 311.5,866.5 311.5,874.5 311.5,882.5C 319.5,882.5 327.5,882.5 335.5,882.5C 335.5,890.5 335.5,898.5 335.5,906.5C 359.5,906.5 383.5,906.5 407.5,906.5C 407.5,922.5 407.5,938.5 407.5,954.5C 391.5,954.5 375.5,954.5 359.5,954.5C 351.5,954.5 343.5,954.5 335.5,954.5C 335.5,946.5 335.5,938.5 335.5,930.5C 327.5,930.5 319.5,930.5 311.5,930.5C 311.5,922.5 311.5,914.5 311.5,906.5C 303.5,906.5 295.5,906.5 287.5,906.5C 287.5,890.5 287.5,874.5 287.5,858.5 Z"/></g>
<g><path style="opacity:1" fill="#9ca0a7" d="M 311.5,858.5 C 319.5,858.5 327.5,858.5 335.5,858.5C 335.5,866.5 335.5,874.5 335.5,882.5C 327.5,882.5 319.5,882.5 311.5,882.5C 311.5,874.5 311.5,866.5 311.5,858.5 Z"/></g>
<g><path style="opacity:1" fill="#74757e" d="M 335.5,858.5 C 359.5,858.5 383.5,858.5 407.5,858.5C 407.5,866.5 407.5,874.5 407.5,882.5C 383.5,882.5 359.5,882.5 335.5,882.5C 335.5,874.5 335.5,866.5 335.5,858.5 Z"/></g>
<g><path style="opacity:1" fill="#74757e" d="M 959.5,858.5 C 983.5,858.5 1007.5,858.5 1031.5,858.5C 1031.5,866.5 1031.5,874.5 1031.5,882.5C 1007.5,882.5 983.5,882.5 959.5,882.5C 959.5,874.5 959.5,866.5 959.5,858.5 Z"/></g>
<g><path style="opacity:1" fill="#9ca0a7" d="M 1031.5,858.5 C 1039.5,858.5 1047.5,858.5 1055.5,858.5C 1055.5,866.5 1055.5,874.5 1055.5,882.5C 1047.5,882.5 1039.5,882.5 1031.5,882.5C 1031.5,874.5 1031.5,866.5 1031.5,858.5 Z"/></g>
<g><path style="opacity:1" fill="#74757e" d="M 1055.5,858.5 C 1063.5,858.5 1071.5,858.5 1079.5,858.5C 1079.5,874.5 1079.5,890.5 1079.5,906.5C 1071.5,906.5 1063.5,906.5 1055.5,906.5C 1055.5,914.5 1055.5,922.5 1055.5,930.5C 1047.5,930.5 1039.5,930.5 1031.5,930.5C 1031.5,938.5 1031.5,946.5 1031.5,954.5C 1007.5,954.5 983.5,954.5 959.5,954.5C 959.5,938.5 959.5,922.5 959.5,906.5C 983.5,906.5 1007.5,906.5 1031.5,906.5C 1031.5,898.5 1031.5,890.5 1031.5,882.5C 1039.5,882.5 1047.5,882.5 1055.5,882.5C 1055.5,874.5 1055.5,866.5 1055.5,858.5 Z"/></g>
<g><path style="opacity:1" fill="#9ca0a7" d="M 335.5,882.5 C 359.5,882.5 383.5,882.5 407.5,882.5C 407.5,890.5 407.5,898.5 407.5,906.5C 383.5,906.5 359.5,906.5 335.5,906.5C 335.5,898.5 335.5,890.5 335.5,882.5 Z"/></g>
<g><path style="opacity:1" fill="#9ca0a7" d="M 959.5,882.5 C 983.5,882.5 1007.5,882.5 1031.5,882.5C 1031.5,890.5 1031.5,898.5 1031.5,906.5C 1007.5,906.5 983.5,906.5 959.5,906.5C 959.5,898.5 959.5,890.5 959.5,882.5 Z"/></g>
<g><path style="opacity:1" fill="#9ca0a7" d="M 359.5,954.5 C 375.5,954.5 391.5,954.5 407.5,954.5C 407.5,962.167 407.5,969.833 407.5,977.5C 399.5,977.5 391.5,977.5 383.5,977.5C 383.5,985.5 383.5,993.5 383.5,1001.5C 375.5,1001.5 367.5,1001.5 359.5,1001.5C 359.5,985.833 359.5,970.167 359.5,954.5 Z"/></g>
<g><path style="opacity:1" fill="#c7ccd2" d="M 407.5,977.5 C 407.5,985.5 407.5,993.5 407.5,1001.5C 399.5,1001.5 391.5,1001.5 383.5,1001.5C 383.5,993.5 383.5,985.5 383.5,977.5C 391.5,977.5 399.5,977.5 407.5,977.5 Z"/></g>
<g><path style="opacity:1" fill="#c7ccd2" d="M 359.5,1001.5 C 367.5,1001.5 375.5,1001.5 383.5,1001.5C 383.5,1009.5 383.5,1017.5 383.5,1025.5C 375.5,1025.5 367.5,1025.5 359.5,1025.5C 359.5,1017.5 359.5,1009.5 359.5,1001.5 Z"/></g>
<g><path style="opacity:1" fill="#9ca0a7" d="M 383.5,1001.5 C 391.5,1001.5 399.5,1001.5 407.5,1001.5C 407.5,1009.5 407.5,1017.5 407.5,1025.5C 399.5,1025.5 391.5,1025.5 383.5,1025.5C 383.5,1017.5 383.5,1009.5 383.5,1001.5 Z"/></g>
<g><path style="opacity:1" fill="#9ca0a7" d="M 359.5,1025.5 C 367.5,1025.5 375.5,1025.5 383.5,1025.5C 383.5,1033.5 383.5,1041.5 383.5,1049.5C 375.5,1049.5 367.5,1049.5 359.5,1049.5C 359.5,1041.5 359.5,1033.5 359.5,1025.5 Z"/></g>
<g><path style="opacity:1" fill="#c7ccd2" d="M 383.5,1025.5 C 391.5,1025.5 399.5,1025.5 407.5,1025.5C 415.5,1025.5 423.5,1025.5 431.5,1025.5C 431.5,1033.5 431.5,1041.5 431.5,1049.5C 439.5,1049.5 447.5,1049.5 455.5,1049.5C 455.5,1057.5 455.5,1065.5 455.5,1073.5C 463.5,1073.5 471.5,1073.5 479.5,1073.5C 479.5,1081.5 479.5,1089.5 479.5,1097.5C 487.5,1097.5 495.5,1097.5 503.5,1097.5C 503.5,1105.5 503.5,1113.5 503.5,1121.5C 503.5,1129.5 503.5,1137.5 503.5,1145.5C 495.5,1145.5 487.5,1145.5 479.5,1145.5C 471.5,1145.5 463.5,1145.5 455.5,1145.5C 447.5,1145.5 439.5,1145.5 431.5,1145.5C 431.5,1137.5 431.5,1129.5 431.5,1121.5C 431.5,1113.5 431.5,1105.5 431.5,1097.5C 423.5,1097.5 415.5,1097.5 407.5,1097.5C 407.5,1089.5 407.5,1081.5 407.5,1073.5C 399.5,1073.5 391.5,1073.5 383.5,1073.5C 383.5,1065.5 383.5,1057.5 383.5,1049.5C 383.5,1041.5 383.5,1033.5 383.5,1025.5 Z"/></g>
<g><path style="opacity:1" fill="#9ca0a7" d="M 599.5,1097.5 C 599.5,1105.5 599.5,1113.5 599.5,1121.5C 591.5,1121.5 583.5,1121.5 575.5,1121.5C 575.5,1129.5 575.5,1137.5 575.5,1145.5C 567.5,1145.5 559.5,1145.5 551.5,1145.5C 551.5,1153.5 551.5,1161.5 551.5,1169.5C 543.5,1169.5 535.5,1169.5 527.5,1169.5C 527.5,1161.5 527.5,1153.5 527.5,1145.5C 519.5,1145.5 511.5,1145.5 503.5,1145.5C 503.5,1137.5 503.5,1129.5 503.5,1121.5C 519.5,1121.5 535.5,1121.5 551.5,1121.5C 551.5,1113.5 551.5,1105.5 551.5,1097.5C 567.5,1097.5 583.5,1097.5 599.5,1097.5 Z"/></g>
<g><path style="opacity:1" fill="#74757e" d="M 599.5,1097.5 C 607.5,1097.5 615.5,1097.5 623.5,1097.5C 623.5,1105.5 623.5,1113.5 623.5,1121.5C 615.5,1121.5 607.5,1121.5 599.5,1121.5C 599.5,1113.5 599.5,1105.5 599.5,1097.5 Z"/></g>
<g><path style="opacity:1" fill="#f4fafe" d="M 431.5,1121.5 C 439.5,1121.5 447.5,1121.5 455.5,1121.5C 455.5,1129.5 455.5,1137.5 455.5,1145.5C 455.5,1137.5 455.5,1129.5 455.5,1121.5C 447.5,1121.5 439.5,1121.5 431.5,1121.5 Z"/></g>
<g><path style="opacity:1" fill="#74757e" d="M 599.5,1121.5 C 599.5,1129.5 599.5,1137.5 599.5,1145.5C 591.5,1145.5 583.5,1145.5 575.5,1145.5C 575.5,1137.5 575.5,1129.5 575.5,1121.5C 583.5,1121.5 591.5,1121.5 599.5,1121.5 Z"/></g>
<g><path style="opacity:1" fill="#9ca0a7" d="M 599.5,1121.5 C 607.5,1121.5 615.5,1121.5 623.5,1121.5C 623.5,1129.5 623.5,1137.5 623.5,1145.5C 615.5,1145.5 607.5,1145.5 599.5,1145.5C 599.5,1137.5 599.5,1129.5 599.5,1121.5 Z"/></g>
<g><path style="opacity:1" fill="#74757e" d="M 623.5,1121.5 C 631.5,1121.5 639.5,1121.5 647.5,1121.5C 647.5,1137.5 647.5,1153.5 647.5,1169.5C 639.5,1169.5 631.5,1169.5 623.5,1169.5C 623.5,1177.17 623.5,1184.83 623.5,1192.5C 607.5,1192.5 591.5,1192.5 575.5,1192.5C 575.5,1184.83 575.5,1177.17 575.5,1169.5C 583.5,1169.5 591.5,1169.5 599.5,1169.5C 599.5,1161.5 599.5,1153.5 599.5,1145.5C 607.5,1145.5 615.5,1145.5 623.5,1145.5C 623.5,1137.5 623.5,1129.5 623.5,1121.5 Z"/></g>
<g><path style="opacity:1" fill="#f4fafe" d="M 455.5,1145.5 C 463.5,1145.5 471.5,1145.5 479.5,1145.5C 479.5,1153.5 479.5,1161.5 479.5,1169.5C 471.5,1169.5 463.5,1169.5 455.5,1169.5C 455.5,1161.5 455.5,1153.5 455.5,1145.5 Z"/></g>
<g><path style="opacity:1" fill="#9ca0a7" d="M 479.5,1145.5 C 487.5,1145.5 495.5,1145.5 503.5,1145.5C 503.5,1153.5 503.5,1161.5 503.5,1169.5C 495.5,1169.5 487.5,1169.5 479.5,1169.5C 479.5,1161.5 479.5,1153.5 479.5,1145.5 Z"/></g>
<g><path style="opacity:1" fill="#c7ccd2" d="M 503.5,1145.5 C 511.5,1145.5 519.5,1145.5 527.5,1145.5C 527.5,1153.5 527.5,1161.5 527.5,1169.5C 519.5,1169.5 511.5,1169.5 503.5,1169.5C 503.5,1161.5 503.5,1153.5 503.5,1145.5 Z"/></g>
<g><path style="opacity:1" fill="#74757e" d="M 575.5,1145.5 C 575.5,1153.5 575.5,1161.5 575.5,1169.5C 567.5,1169.5 559.5,1169.5 551.5,1169.5C 551.5,1161.5 551.5,1153.5 551.5,1145.5C 559.5,1145.5 567.5,1145.5 575.5,1145.5 Z"/></g>
<g><path style="opacity:1" fill="#9ca0a7" d="M 575.5,1145.5 C 583.5,1145.5 591.5,1145.5 599.5,1145.5C 599.5,1153.5 599.5,1161.5 599.5,1169.5C 591.5,1169.5 583.5,1169.5 575.5,1169.5C 575.5,1161.5 575.5,1153.5 575.5,1145.5 Z"/></g>
<g><path style="opacity:1" fill="#9ca0a7" d="M 551.5,1169.5 C 559.5,1169.5 567.5,1169.5 575.5,1169.5C 575.5,1177.17 575.5,1184.83 575.5,1192.5C 567.5,1192.5 559.5,1192.5 551.5,1192.5C 551.5,1184.83 551.5,1177.17 551.5,1169.5 Z"/></g>
<g><path style="opacity:1" fill="#0e0011" d="M 887.5,1192.5 C 887.5,1200.5 887.5,1208.5 887.5,1216.5C 879.5,1216.5 871.5,1216.5 863.5,1216.5C 863.5,1208.5 863.5,1200.5 863.5,1192.5C 871.5,1192.5 879.5,1192.5 887.5,1192.5 Z"/></g>
<g><path style="opacity:1" fill="#0e0011" d="M 863.5,1216.5 C 863.5,1224.5 863.5,1232.5 863.5,1240.5C 855.5,1240.5 847.5,1240.5 839.5,1240.5C 839.5,1232.5 839.5,1224.5 839.5,1216.5C 847.5,1216.5 855.5,1216.5 863.5,1216.5 Z"/></g>
<g><path style="opacity:1" fill="#0e0011" d="M 527.5,1240.5 C 535.5,1240.5 543.5,1240.5 551.5,1240.5C 551.5,1248.5 551.5,1256.5 551.5,1264.5C 543.5,1264.5 535.5,1264.5 527.5,1264.5C 527.5,1256.5 527.5,1248.5 527.5,1240.5 Z"/></g>
<g><path style="opacity:1" fill="#0e0011" d="M 839.5,1240.5 C 839.5,1248.5 839.5,1256.5 839.5,1264.5C 831.5,1264.5 823.5,1264.5 815.5,1264.5C 815.5,1256.5 815.5,1248.5 815.5,1240.5C 823.5,1240.5 831.5,1240.5 839.5,1240.5 Z"/></g>
<g><path style="opacity:1" fill="#0e0011" d="M 551.5,1264.5 C 559.5,1264.5 567.5,1264.5 575.5,1264.5C 575.5,1272.5 575.5,1280.5 575.5,1288.5C 567.5,1288.5 559.5,1288.5 551.5,1288.5C 551.5,1280.5 551.5,1272.5 551.5,1264.5 Z"/></g>
<g><path style="opacity:1" fill="#0e0011" d="M 815.5,1264.5 C 815.5,1272.5 815.5,1280.5 815.5,1288.5C 807.5,1288.5 799.5,1288.5 791.5,1288.5C 791.5,1280.5 791.5,1272.5 791.5,1264.5C 799.5,1264.5 807.5,1264.5 815.5,1264.5 Z"/></g>
<g><path style="opacity:1" fill="#0e0011" d="M 575.5,1288.5 C 583.5,1288.5 591.5,1288.5 599.5,1288.5C 599.5,1296.5 599.5,1304.5 599.5,1312.5C 591.5,1312.5 583.5,1312.5 575.5,1312.5C 575.5,1304.5 575.5,1296.5 575.5,1288.5 Z"/></g>
<g><path style="opacity:1" fill="#0e0011" d="M 791.5,1288.5 C 791.5,1296.5 791.5,1304.5 791.5,1312.5C 783.5,1312.5 775.5,1312.5 767.5,1312.5C 767.5,1304.5 767.5,1296.5 767.5,1288.5C 775.5,1288.5 783.5,1288.5 791.5,1288.5 Z"/></g>
<g><path style="opacity:1" fill="#0e0011" d="M 599.5,1312.5 C 615.5,1312.5 631.5,1312.5 647.5,1312.5C 647.5,1320.5 647.5,1328.5 647.5,1336.5C 631.5,1336.5 615.5,1336.5 599.5,1336.5C 599.5,1328.5 599.5,1320.5 599.5,1312.5 Z"/></g>
<g><path style="opacity:1" fill="#0e0011" d="M 767.5,1312.5 C 767.5,1320.5 767.5,1328.5 767.5,1336.5C 751.5,1336.5 735.5,1336.5 719.5,1336.5C 719.5,1328.5 719.5,1320.5 719.5,1312.5C 735.5,1312.5 751.5,1312.5 767.5,1312.5 Z"/></g>
<g><path style="opacity:1" fill="#0e0011" d="M 647.5,1336.5 C 671.5,1336.5 695.5,1336.5 719.5,1336.5C 719.5,1344.5 719.5,1352.5 719.5,1360.5C 695.5,1360.5 671.5,1360.5 647.5,1360.5C 647.5,1352.5 647.5,1344.5 647.5,1336.5 Z"/></g>
</svg>
