<?xml version="1.0" encoding="UTF-8"?>
<!DOCTYPE svg PUBLIC "-//W3C//DTD SVG 1.1//EN" "http://www.w3.org/Graphics/SVG/1.1/DTD/svg11.dtd">
<svg xmlns="http://www.w3.org/2000/svg" version="1.1" width="370px" height="80px" style="shape-rendering:geometricPrecision; text-rendering:geometricPrecision; image-rendering:optimizeQuality; fill-rule:evenodd; clip-rule:evenodd" xmlns:xlink="http://www.w3.org/1999/xlink">
<g><path style="opacity:0.761" fill="#669452" d="M 70.5,1.5 C 71.4584,1.9528 72.2917,2.61947 73,3.5C 73.6891,2.64332 74.5224,1.97665 75.5,1.5C 76.941,2.86508 78.2744,4.36508 79.5,6C 78.4214,6.95604 77.2547,7.78937 76,8.5C 75.5078,9.54896 75.6744,10.549 76.5,11.5C 73.0294,14.2025 69.0294,15.5358 64.5,15.5C 64.5,16.8333 64.5,18.1667 64.5,19.5C 60.3793,17.5574 57.046,18.3907 54.5,22C 51.3271,23.4699 48.3271,24.4699 45.5,25C 47.2661,30.0171 48.9327,35.3504 50.5,41C 48.5747,43.4654 48.5747,46.132 50.5,49C 48.0777,50.888 48.0777,52.888 50.5,55C 49.917,56.6187 49.917,58.452 50.5,60.5C 47.0354,62.2647 43.5354,63.9313 40,65.5C 38.3107,63.24 37.144,60.74 36.5,58C 37.481,55.3926 37.8143,52.5593 37.5,49.5C 36.9598,48.2519 36.2931,47.0852 35.5,46C 35.9038,41.3521 36.4038,36.5188 37,31.5C 39.1135,29.7289 38.9468,28.2289 36.5,27C 37.8413,25.1735 37.3413,24.0069 35,23.5C 32.5687,24.895 30.4021,26.5617 28.5,28.5C 27.5224,28.0233 26.6891,27.3567 26,26.5C 23.1034,29.2309 19.6034,30.2309 15.5,29.5C 14.9916,26.1485 13.6582,23.1485 11.5,20.5C 14.1072,16.8477 17.4405,15.5144 21.5,16.5C 22.0527,20.4557 22.8861,20.4557 24,16.5C 25.3333,17.1667 26.6667,17.8333 28,18.5C 29.4398,14.2555 31.7731,13.2555 35,15.5C 39.2852,14.2033 43.6185,12.2033 48,9.5C 49.0195,10.6872 50.1861,11.6872 51.5,12.5C 55.7119,11.4683 59.3786,9.46831 62.5,6.5C 64.2578,7.44597 65.9245,7.44597 67.5,6.5C 67.1667,5.83333 66.8333,5.16667 66.5,4.5C 67.9014,3.47934 69.2347,2.47934 70.5,1.5 Z"/></g>
<g><path style="opacity:0.772" fill="#669452" d="M 84.5,1.5 C 86.6633,2.72015 88.83,2.72015 91,1.5C 93.8089,1.75187 95.8089,3.08521 97,5.5C 99.6304,3.17198 101.797,3.33865 103.5,6C 106.934,6.55764 110.267,7.39098 113.5,8.5C 113.297,10.3904 113.963,11.8904 115.5,13C 114.833,13.6667 114.167,14.3333 113.5,15C 115.025,16.0086 116.692,16.5086 118.5,16.5C 117.349,19.8361 117.182,23.1694 118,26.5C 116.398,28.3073 115.064,30.3073 114,32.5C 113.282,31.5494 112.449,31.3828 111.5,32C 111.966,33.2988 111.966,34.7988 111.5,36.5C 112.822,36.67 113.989,36.3366 115,35.5C 115.273,37.3289 116.107,38.8289 117.5,40C 115.048,41.8064 115.381,43.3064 118.5,44.5C 116.629,47.2341 115.629,50.2341 115.5,53.5C 114.5,53.5 113.5,53.5 112.5,53.5C 112.315,57.8492 109.981,60.0158 105.5,60C 104.789,61.2547 103.956,62.4214 103,63.5C 101.387,62.3777 100.22,62.8777 99.5,65C 97.5273,65.4955 95.5273,65.6621 93.5,65.5C 93.6495,64.448 93.4828,63.448 93,62.5C 91.6152,63.5505 90.6152,64.8839 90,66.5C 87.913,65.2062 85.7463,64.0395 83.5,63C 83.9662,61.7012 83.9662,60.2012 83.5,58.5C 82.1667,58.5 80.8333,58.5 79.5,58.5C 79.67,57.1779 79.3366,56.0113 78.5,55C 82.1356,52.6398 82.8023,49.8065 80.5,46.5C 83.0443,45.0626 83.0443,43.5626 80.5,42C 80.9401,39.7808 81.6068,37.2808 82.5,34.5C 81.6016,32.3736 80.435,30.3736 79,28.5C 78.4459,25.3418 77.9459,22.1751 77.5,19C 80.3039,13.4354 82.6373,7.60205 84.5,1.5 Z M 92.5,13.5 C 95.7905,15.7826 99.1238,17.2826 102.5,18C 103.337,19.0113 103.67,20.1779 103.5,21.5C 105.942,21.3537 106.609,22.187 105.5,24C 104.101,24.5946 102.768,24.4279 101.5,23.5C 99.6641,24.919 97.6641,26.0857 95.5,27C 95.8333,27.3333 96.1667,27.6667 96.5,28C 95.552,28.4828 94.552,28.6495 93.5,28.5C 92.6365,30.8954 92.6365,33.2287 93.5,35.5C 97.0582,38.8109 101.058,39.9776 105.5,39C 104.692,39.3076 104.025,39.8076 103.5,40.5C 103.336,42.3963 103.669,44.3963 104.5,46.5C 104.281,47.938 103.781,49.2713 103,50.5C 102.667,50.1667 102.333,49.8333 102,49.5C 100.684,50.9743 99.6839,52.641 99,54.5C 97.47,53.0798 95.6367,52.0798 93.5,51.5C 91.1149,48.7554 91.1149,45.9221 93.5,43C 91.7727,41.6106 90.4394,39.9439 89.5,38C 90.3943,36.6043 91.0609,35.1043 91.5,33.5C 91.1822,32.3527 90.5156,31.5194 89.5,31C 91.7593,29.0651 92.7593,26.5651 92.5,23.5C 87.3706,23.281 87.3706,22.6144 92.5,21.5C 91.6285,18.7284 91.6285,16.0618 92.5,13.5 Z"/></g>
<g><path style="opacity:0.695" fill="#669452" d="M 215.5,5.5 C 217.728,5.71115 219.895,5.71115 222,5.5C 225.607,6.20811 228.107,8.20811 229.5,11.5C 228.68,13.9426 229.347,16.1092 231.5,18C 231.852,20.1934 231.352,22.3601 230,24.5C 229.667,24.1667 229.333,23.8333 229,23.5C 226.551,26.5392 223.551,27.5392 220,26.5C 218.414,27.376 216.914,28.376 215.5,29.5C 214.618,28.2402 213.618,27.0736 212.5,26C 213.482,21.9738 213.482,18.3072 212.5,15C 213.132,11.6777 214.132,8.51104 215.5,5.5 Z M 226.5,21.5 C 223.811,22.0382 221.144,22.7049 218.5,23.5C 217.366,18.8685 217.366,14.2018 218.5,9.5C 220.382,9.35754 222.382,9.85754 224.5,11C 223.833,12 223.167,13 222.5,14C 223.714,16.6741 225.047,19.1741 226.5,21.5 Z"/></g>
<g><path style="opacity:0.764" fill="#669452" d="M 131.5,9.5 C 135.284,11.316 139.284,12.316 143.5,12.5C 144.578,17.0819 146.411,17.4152 149,13.5C 151.851,15.4104 153.351,17.7437 153.5,20.5C 155.101,21.1654 156.601,21.4988 158,21.5C 158.346,23.2182 158.846,24.8849 159.5,26.5C 159.291,27.086 158.957,27.586 158.5,28C 160.742,30.119 161.075,32.619 159.5,35.5C 162.056,40.3023 161.056,44.469 156.5,48C 158.516,49.0282 159.516,50.6948 159.5,53C 158.733,56.6342 157.566,60.1342 156,63.5C 155.333,62.1667 154.667,62.1667 154,63.5C 153.517,64.448 153.351,65.448 153.5,66.5C 151.641,66.4609 150.308,67.2942 149.5,69C 147.866,69.4935 146.199,69.6602 144.5,69.5C 144.5,68.5 144.5,67.5 144.5,66.5C 141.287,67.164 139.121,69.164 138,72.5C 133.526,70.3565 130.026,67.1899 127.5,63C 129.686,62.3964 129.852,61.2297 128,59.5C 126.989,58.6634 125.822,58.33 124.5,58.5C 124.26,55.4212 124.593,52.4212 125.5,49.5C 124.675,48.6143 123.675,48.281 122.5,48.5C 122.682,46.4086 122.348,44.4086 121.5,42.5C 122.248,40.6675 123.248,39.0009 124.5,37.5C 123.754,36.2638 123.421,34.9305 123.5,33.5C 122.448,33.6495 121.448,33.4828 120.5,33C 121.167,30.6667 121.833,28.3333 122.5,26C 121.978,25.4387 121.645,24.772 121.5,24C 123.068,20.367 124.735,16.867 126.5,13.5C 129.546,13.8174 131.213,12.4841 131.5,9.5 Z M 135.5,26.5 C 136.458,26.0472 137.292,25.3805 138,24.5C 139.333,25.8333 140.667,25.8333 142,24.5C 144.325,27.8346 146.825,31.0013 149.5,34C 148.833,34.6667 148.167,35.3333 147.5,36C 147.152,38.725 147.818,41.3917 149.5,44C 148.692,44.3076 148.025,44.8076 147.5,45.5C 148.711,46.7202 148.711,47.8869 147.5,49C 148.167,49.3333 148.833,49.6667 149.5,50C 148.234,50.3095 147.067,50.8095 146,51.5C 145.381,54.0318 144.381,56.3651 143,58.5C 141.667,55.8333 140.333,55.8333 139,58.5C 137.167,56.3333 135.333,54.1667 133.5,52C 133.944,48.7401 134.277,45.2401 134.5,41.5C 133.448,41.6495 132.448,41.4828 131.5,41C 133.585,38.0184 134.919,34.6851 135.5,31C 135.095,30.0546 134.428,29.3879 133.5,29C 134.381,28.2917 135.047,27.4584 135.5,26.5 Z"/></g>
<g><path style="opacity:0.767" fill="#669452" d="M 170.5,9.5 C 175.366,10.9094 176.699,13.576 174.5,17.5C 176.593,20.7216 178.26,24.2216 179.5,28C 177.219,29.851 177.219,31.5177 179.5,33C 178.205,35.8007 178.205,38.6341 179.5,41.5C 178.335,42.5836 177.002,43.4169 175.5,44C 178.147,44.3149 178.813,45.4816 177.5,47.5C 179.564,49.4329 179.564,51.5995 177.5,54C 177.95,55.2853 178.617,56.452 179.5,57.5C 178.217,60.3182 178.217,63.1516 179.5,66C 178.38,67.7374 177.38,69.5708 176.5,71.5C 174.604,72.4656 172.604,72.7989 170.5,72.5C 170.357,70.7376 170.691,69.0709 171.5,67.5C 169.922,66.9276 168.422,66.5943 167,66.5C 166.9,63.5628 166.067,60.8961 164.5,58.5C 165.214,56.1889 166.214,54.0223 167.5,52C 166.09,51.6322 165.09,50.7989 164.5,49.5C 165.272,45.1462 165.272,40.9795 164.5,37C 168.434,33.8765 168.434,30.7099 164.5,27.5C 165.649,20.7677 167.649,14.7677 170.5,9.5 Z"/></g>
<g><path style="opacity:0.732" fill="#669452" d="M 344.5,39.5 C 343.962,47.2726 342.296,54.7726 339.5,62C 340.865,63.6819 342.365,63.8486 344,62.5C 344.251,60.567 344.751,58.7337 345.5,57C 344.366,55.984 344.699,55.3173 346.5,55C 345.72,53.927 345.887,52.7604 347,51.5C 349.557,50.3543 350.89,51.3543 351,54.5C 351.317,50.2014 352.983,46.5347 356,43.5C 357.527,47.9754 356.694,52.1421 353.5,56C 354.767,57.7959 354.767,59.6293 353.5,61.5C 355.023,63.2825 357.023,63.9492 359.5,63.5C 360.629,59.6989 360.629,56.1989 359.5,53C 360.116,50.8215 361.283,48.9882 363,47.5C 363.333,47.8333 363.667,48.1667 364,48.5C 364.411,54.8694 364.578,61.0361 364.5,67C 363.833,69 363.167,71 362.5,73C 362.969,74.962 362.303,76.7953 360.5,78.5C 359.944,74.8249 358.944,71.3249 357.5,68C 355.765,67.3486 354.098,67.5153 352.5,68.5C 351.38,67.1666 350.047,66.6666 348.5,67C 348.5,69 348.5,71 348.5,73C 347.02,75.6679 345.52,75.8345 344,73.5C 343.506,71.8659 343.34,70.1992 343.5,68.5C 340.813,68.6641 338.146,68.4974 335.5,68C 334.657,66.2134 334.49,64.3801 335,62.5C 331.422,61.0901 328.588,58.7567 326.5,55.5C 325.287,57.6412 324.121,60.3079 323,63.5C 322,64.5 321,65.5 320,66.5C 318.414,64.3295 317.08,61.9962 316,59.5C 314.662,64.5557 312.996,64.5557 311,59.5C 310.792,61.7765 309.958,63.9432 308.5,66C 306.655,67.128 304.655,67.628 302.5,67.5C 301.999,64.5985 300.333,63.0985 297.5,63C 301.108,66.1959 300.274,68.3626 295,69.5C 292.31,67.8183 289.477,66.3183 286.5,65C 284.383,62.9654 283.383,60.7987 283.5,58.5C 280.615,61.4965 280.282,64.6631 282.5,68C 281.151,68.7724 280.318,69.9391 280,71.5C 277.754,71.8982 275.587,71.2315 273.5,69.5C 273.222,66.9334 273.056,64.2667 273,61.5C 272.517,64.8229 271.017,67.4896 268.5,69.5C 266.715,66.0481 265.382,62.3815 264.5,58.5C 265.39,57.0445 265.39,55.7112 264.5,54.5C 265.04,53.2519 265.707,52.0852 266.5,51C 265.707,49.9148 265.04,48.7481 264.5,47.5C 262.253,46.7554 260.42,45.422 259,43.5C 257.494,45.1742 255.661,46.1742 253.5,46.5C 253.146,48.5412 253.146,50.3745 253.5,52C 251.854,53.5548 251.521,55.2215 252.5,57C 250.478,58.1325 250.145,59.7991 251.5,62C 251.156,63.3651 250.489,64.5318 249.5,65.5C 250.822,68.8444 249.822,69.8444 246.5,68.5C 245.826,66.4835 244.659,64.8168 243,63.5C 242.967,58.9818 243.467,54.4818 244.5,50C 246.059,44.638 247.225,39.138 248,33.5C 248.654,34.6956 249.154,34.6956 249.5,33.5C 249.37,31.5774 249.036,29.7441 248.5,28C 250.807,27.6458 251.141,26.6458 249.5,25C 249.905,24.0546 250.572,23.3879 251.5,23C 250.446,21.6124 250.28,20.1124 251,18.5C 252.118,16.2416 253.618,14.2416 255.5,12.5C 255.833,12.8333 256.167,13.1667 256.5,13.5C 256.464,16.2807 256.798,19.114 257.5,22C 257.117,24.9638 256.117,27.6305 254.5,30C 254.779,32.2465 255.113,34.7465 255.5,37.5C 257.678,38.204 259.678,38.5374 261.5,38.5C 262.931,38.0234 264.264,37.3567 265.5,36.5C 265.277,35.0333 264.944,33.5333 264.5,32C 265.5,29.6667 266.5,27.3333 267.5,25C 265.932,21.2812 266.765,17.7812 270,14.5C 270.772,14.6448 271.439,14.9781 272,15.5C 272.422,17.3553 272.922,19.1886 273.5,21C 272.167,23.6667 272.167,26.3333 273.5,29C 273.05,30.2853 272.383,31.452 271.5,32.5C 272.167,33.1667 272.833,33.8333 273.5,34.5C 272.927,37.6313 272.594,40.798 272.5,44C 273,44.5 273.5,45 274,45.5C 275.308,41.1939 277.808,37.8605 281.5,35.5C 282.354,36.5217 283.354,37.3551 284.5,38C 283.235,39.3374 282.735,40.8374 283,42.5C 284,44.8333 285.667,46.5 288,47.5C 287.997,51.6821 289.83,53.3488 293.5,52.5C 290.999,49.8986 290.999,47.3986 293.5,45C 293.167,44.6667 292.833,44.3333 292.5,44C 293.861,42.4157 294.528,40.5824 294.5,38.5C 295.675,38.281 296.675,38.6143 297.5,39.5C 299,41.8333 300.5,44.1667 302,46.5C 302.47,44.2262 303.47,42.2262 305,40.5C 306,39.1667 307,39.1667 308,40.5C 308.21,39.1971 308.043,37.8638 307.5,36.5C 309.476,34.081 308.976,31.7477 306,29.5C 304.274,30.5762 302.441,30.7429 300.5,30C 299.549,29.2825 299.383,28.4491 300,27.5C 303.025,24.5149 306.192,22.5149 309.5,21.5C 310.244,20.0095 310.91,18.5095 311.5,17C 311.833,16.8333 312.167,16.6667 312.5,16.5C 313.251,17.376 313.751,18.376 314,19.5C 317.935,15.1489 322.935,12.1489 329,10.5C 329.5,10.8333 330,11.1667 330.5,11.5C 328.803,17.1974 325.136,20.864 319.5,22.5C 317.768,24.8767 315.768,27.0434 313.5,29C 314.308,29.3076 314.975,29.8076 315.5,30.5C 316.078,33.7741 315.411,36.9407 313.5,40C 314.506,41.338 315.506,42.6713 316.5,44C 316.167,44.3333 315.833,44.6667 315.5,45C 316.11,46.9472 316.943,48.7806 318,50.5C 319.462,48.0119 320.462,45.3452 321,42.5C 322.758,41.5305 323.258,40.3639 322.5,39C 324.785,37.0464 326.952,37.213 329,39.5C 329.885,42 331.052,44.3333 332.5,46.5C 331.429,48.3255 332.096,49.4921 334.5,50C 334.167,50.3333 333.833,50.6667 333.5,51C 334.618,52.0736 335.618,53.2402 336.5,54.5C 337.853,49.9341 339.686,45.6008 342,41.5C 342.708,40.6195 343.542,39.9528 344.5,39.5 Z M 273.5,50.5 C 269.819,48.8804 269.819,47.5471 273.5,46.5C 274.626,47.8084 274.626,49.1417 273.5,50.5 Z M 301.5,48.5 C 302.251,47.4265 303.251,47.2599 304.5,48C 303.648,49.7284 302.648,49.895 301.5,48.5 Z M 273.5,57.5 C 272.761,57.631 272.094,57.4643 271.5,57C 271.676,55.3084 272.176,53.8084 273,52.5C 273.494,54.1341 273.66,55.8008 273.5,57.5 Z M 273.5,57.5 C 275.76,58.2376 275.927,59.2376 274,60.5C 273.517,59.552 273.351,58.552 273.5,57.5 Z M 349.5,59.5 C 350.043,59.56 350.376,59.8933 350.5,60.5C 349.902,61.7946 349.402,63.1279 349,64.5C 348.36,62.735 348.527,61.0683 349.5,59.5 Z"/></g>
<g><path style="opacity:0.671" fill="#669452" d="M 233.5,14.5 C 236.145,15.8118 238.145,17.8118 239.5,20.5C 242.884,12.3847 244.384,12.7181 244,21.5C 242.444,26.9213 240.277,31.588 237.5,35.5C 236.054,34.8291 235.388,33.6624 235.5,32C 236.03,29.7927 237.03,27.7927 238.5,26C 234.547,23.2534 232.881,19.42 233.5,14.5 Z"/></g>
<g><path style="opacity:0.7" fill="#669452" d="M 344.5,22.5 C 343.621,26.6472 342.121,30.6472 340,34.5C 338.415,33.6243 337.415,32.2909 337,30.5C 336.023,32.74 335.523,35.0733 335.5,37.5C 332.512,37.8453 331.179,36.512 331.5,33.5C 331.713,28.3295 333.213,23.3295 336,18.5C 337.385,19.5505 338.385,20.8839 339,22.5C 341.138,15.8435 342.971,15.8435 344.5,22.5 Z"/></g>
<g><path style="opacity:0.698" fill="#669452" d="M 369.5,22.5 C 369.5,26.5 369.5,30.5 369.5,34.5C 368.735,34.9234 367.902,35.2568 367,35.5C 365.112,34.2226 363.112,33.2226 361,32.5C 359.667,35.1667 358.333,35.1667 357,32.5C 356.428,35.707 354.595,37.3737 351.5,37.5C 351.66,35.8008 351.494,34.1341 351,32.5C 350.06,34.9418 348.894,37.2751 347.5,39.5C 346.473,40.7914 345.473,40.7914 344.5,39.5C 344.806,33.7507 344.806,28.084 344.5,22.5C 345.712,21.7701 346.712,20.7701 347.5,19.5C 348.934,21.2199 349.767,23.2199 350,25.5C 350.249,24.376 350.749,23.376 351.5,22.5C 352.298,24.0777 352.798,25.7444 353,27.5C 353.956,24.6229 355.289,21.9562 357,19.5C 358.659,20.8168 359.826,22.4835 360.5,24.5C 362.453,25.6904 364.287,27.0237 366,28.5C 366.006,25.7356 367.172,23.7356 369.5,22.5 Z"/></g>
<g><path style="opacity:0.717" fill="#669452" d="M 198.5,33.5 C 200.229,34.1175 201.729,35.1175 203,36.5C 204.799,36.2795 206.632,35.9461 208.5,35.5C 209.192,36.0253 209.692,36.6919 210,37.5C 212.291,36.6894 214.125,37.5228 215.5,40C 215.167,40.3333 214.833,40.6667 214.5,41C 218.282,44.4335 217.949,46.9335 213.5,48.5C 212.281,47.7366 211.281,46.7366 210.5,45.5C 209.167,46.5 207.833,47.5 206.5,48.5C 203.302,45.2621 200.135,45.5955 197,49.5C 195.027,48.3601 193.193,47.0267 191.5,45.5C 191.709,44.914 192.043,44.414 192.5,44C 188.171,39.8377 188.671,36.671 194,34.5C 194.419,35.6721 195.085,36.6721 196,37.5C 196.662,36.0161 197.496,34.6828 198.5,33.5 Z"/></g>
</svg>
